<?xml version="1.0" encoding="us-ascii" standalone="no"?><svg xmlns="http://www.w3.org/2000/svg" xmlns:xlink="http://www.w3.org/1999/xlink" contentStyleType="text/css" height="831px" preserveAspectRatio="none" style="width:1155px;height:831px;background:#FFFFFF;" version="1.1" viewBox="0 0 1155 831" width="1155px" zoomAndPan="magnify"><defs/><g><text fill="#000000" font-family="sans-serif" font-size="14" font-weight="bold" lengthAdjust="spacing" textLength="312" x="414.93" y="22.9951">State Diagram for GumballStateMachine</text><g id="ready"><rect fill="#F1F1F1" height="50" rx="12.5" ry="12.5" style="stroke:#181818;stroke-width:0.5;" width="58" x="584.81" y="124.2969"/><line style="stroke:#181818;stroke-width:0.5;" x1="584.81" x2="642.81" y1="150.5938" y2="150.5938"/><text fill="#000000" font-family="sans-serif" font-size="14" lengthAdjust="spacing" textLength="38" x="594.81" y="142.292">ready</text></g><ellipse cx="613.81" cy="53.2969" fill="#222222" rx="10" ry="10" style="stroke:#222222;stroke-width:1.0;"/><g id="coin_dropped"><rect fill="#F1F1F1" height="50" rx="12.5" ry="12.5" style="stroke:#181818;stroke-width:0.5;" width="115" x="197.31" y="266.2969"/><line style="stroke:#181818;stroke-width:0.5;" x1="197.31" x2="312.31" y1="292.5938" y2="292.5938"/><text fill="#000000" font-family="sans-serif" font-size="14" lengthAdjust="spacing" textLength="95" x="207.31" y="284.292">coin_dropped</text></g><g id="crank_turned"><rect fill="#F1F1F1" height="50" rx="12.5" ry="12.5" style="stroke:#181818;stroke-width:0.5;" width="111" x="586.31" y="408.2969"/><line style="stroke:#181818;stroke-width:0.5;" x1="586.31" x2="697.31" y1="434.5938" y2="434.5938"/><text fill="#000000" font-family="sans-serif" font-size="14" lengthAdjust="spacing" textLength="91" x="596.31" y="426.292">crank_turned</text></g><g id="gumball_dispensed"><rect fill="#F1F1F1" height="50" rx="12.5" ry="12.5" style="stroke:#181818;stroke-width:0.5;" width="154" x="789.81" y="550.2969"/><line style="stroke:#181818;stroke-width:0.5;" x1="789.81" x2="943.81" y1="576.5938" y2="576.5938"/><text fill="#000000" font-family="sans-serif" font-size="14" lengthAdjust="spacing" textLength="134" x="799.81" y="568.292">gumball_dispensed</text></g><g id="crank_returned"><rect fill="#F1F1F1" height="50" rx="12.5" ry="12.5" style="stroke:#181818;stroke-width:0.5;" width="125" x="948.31" y="692.2969"/><line style="stroke:#181818;stroke-width:0.5;" x1="948.31" x2="1073.31" y1="718.5938" y2="718.5938"/><text fill="#000000" font-family="sans-serif" font-size="14" lengthAdjust="spacing" textLength="105" x="958.31" y="710.292">crank_returned</text></g><g id="coin_rejected"><rect fill="#F1F1F1" height="50" rx="12.5" ry="12.5" style="stroke:#181818;stroke-width:0.5;" width="113" x="474.31" y="266.2969"/><line style="stroke:#181818;stroke-width:0.5;" x1="474.31" x2="587.31" y1="292.5938" y2="292.5938"/><text fill="#000000" font-family="sans-serif" font-size="14" lengthAdjust="spacing" textLength="93" x="484.31" y="284.292">coin_rejected</text></g><ellipse cx="1010.81" cy="814.2969" fill="none" rx="11" ry="11" style="stroke:#222222;stroke-width:1.0;"/><ellipse cx="1010.81" cy="814.2969" fill="#222222" rx="6" ry="6" style="stroke:#222222;stroke-width:1.0;"/><!--link *start* to ready--><g id="link_*start*_ready"><path d="M613.81,63.6569 C613.81,77.5869 613.81,98.2469 613.81,117.9469 " fill="none" id="*start*-to-ready" style="stroke:#181818;stroke-width:1.0;"/><polygon fill="#181818" points="613.81,123.9469,617.81,114.9469,613.81,118.9469,609.81,114.9469,613.81,123.9469" style="stroke:#181818;stroke-width:1.0;"/></g><!--link coin_dropped to crank_turned--><g id="link_coin_dropped_crank_turned"><path d="M312.75,313.2569 C386.55,339.9569 507.578,383.7354 580.348,410.0654 " fill="none" id="coin_dropped-to-crank_turned" style="stroke:#181818;stroke-width:1.0;"/><polygon fill="#181818" points="585.99,412.1069,578.8879,405.2834,581.2883,410.4057,576.166,412.8061,585.99,412.1069" style="stroke:#181818;stroke-width:1.0;"/><text fill="#000000" font-family="sans-serif" font-size="13" lengthAdjust="spacing" textLength="58" x="564.81" y="359.3638">cranking:</text><text fill="#000000" font-family="sans-serif" font-size="13" lengthAdjust="spacing" textLength="210" x="492.81" y="374.4966">self._model.crank('position') != 0</text></g><!--link crank_turned to gumball_dispensed--><g id="link_crank_turned_gumball_dispensed"><path d="M681,458.6869 C722.18,484.2969 781.4558,521.1869 822.5958,546.7869 " fill="none" id="crank_turned-to-gumball_dispensed" style="stroke:#181818;stroke-width:1.0;"/><polygon fill="#181818" points="827.69,549.9569,822.162,541.8058,823.4448,547.3152,817.9353,548.5981,827.69,549.9569" style="stroke:#181818;stroke-width:1.0;"/><text fill="#000000" font-family="sans-serif" font-size="13" lengthAdjust="spacing" textLength="72" x="870.81" y="501.3638">dispensing:</text><text fill="#000000" font-family="sans-serif" font-size="13" lengthAdjust="spacing" textLength="256" x="782.81" y="516.4966">self._model.gumball_dispensed() is True</text></g><!--link gumball_dispensed to crank_returned--><g id="link_gumball_dispensed_crank_returned"><path d="M869.13,600.7869 C872.06,619.5769 878.72,645.1369 893.81,662.2969 C908.14,678.5969 922.8768,687.9766 942.5268,696.2166 " fill="none" id="gumball_dispensed-to-crank_returned" style="stroke:#181818;stroke-width:1.0;"/><polygon fill="#181818" points="948.06,698.5369,941.3071,691.3677,943.449,696.6033,938.2133,698.7452,948.06,698.5369" style="stroke:#181818;stroke-width:1.0;"/><text fill="#000000" font-family="sans-serif" font-size="13" lengthAdjust="spacing" textLength="56" x="978.81" y="643.3638">finishing:</text><text fill="#000000" font-family="sans-serif" font-size="13" lengthAdjust="spacing" textLength="216" x="902.81" y="658.4966">self._model.crank('position') == 0</text></g><!--link ready to coin_rejected--><g id="link_ready_coin_rejected"><path d="M584.45,154.5569 C537.16,162.0869 447.53,179.3369 428.81,204.2969 C409.57,229.9669 435.5891,250.4341 468.4991,266.2041 " fill="none" id="ready-to-coin_rejected" style="stroke:#181818;stroke-width:1.0;"/><polygon fill="#181818" points="473.91,268.7969,467.5223,261.3004,469.401,266.6362,464.0652,268.5149,473.91,268.7969" style="stroke:#181818;stroke-width:1.0;"/><text fill="#000000" font-family="sans-serif" font-size="13" lengthAdjust="spacing" textLength="123" x="529.81" y="217.3638">rejecting_payment:</text><text fill="#000000" font-family="sans-serif" font-size="13" lengthAdjust="spacing" textLength="315" x="437.81" y="232.4966">self._model.coin_slot('read') == COIN_SLOT_BAD</text></g><!--link coin_rejected to ready--><g id="link_coin_rejected_ready"><path d="M587.8,284.7169 C647.98,277.5069 737,262.6369 757.81,236.2969 C792.38,192.5369 700.5279,167.3312 649.0879,156.7912 " fill="none" id="coin_rejected-to-ready" style="stroke:#181818;stroke-width:1.0;"/><polygon fill="#181818" points="643.21,155.5869,651.2239,161.312,648.1082,156.5905,652.8297,153.4748,643.21,155.5869" style="stroke:#181818;stroke-width:1.0;"/><text fill="#000000" font-family="sans-serif" font-size="13" lengthAdjust="spacing" textLength="101" x="877.31" y="217.3638">reset_payment:</text><text fill="#000000" font-family="sans-serif" font-size="13" lengthAdjust="spacing" textLength="316" x="773.81" y="232.4966">self._model.coin_slot('read') is COIN_SLOT_EMPTY</text></g><!--link ready to coin_dropped--><g id="link_ready_coin_dropped"><path d="M584.63,150.8569 C474.41,153.2669 87.94,164.5269 51.81,204.2969 C6,254.7269 116.0796,275.9191 191.0396,284.5691 " fill="none" id="ready-to-coin_dropped" style="stroke:#181818;stroke-width:1.0;"/><polygon fill="#181818" points="197,285.2569,188.5179,280.2515,192.033,284.6837,187.6008,288.1988,197,285.2569" style="stroke:#181818;stroke-width:1.0;"/><text fill="#000000" font-family="sans-serif" font-size="13" lengthAdjust="spacing" textLength="46" x="210.81" y="217.3638">paying:</text><text fill="#000000" font-family="sans-serif" font-size="13" lengthAdjust="spacing" textLength="354" x="60.81" y="232.4966">self._model.coin_slot('read') == COIN_SLOT_OCCUPIED</text></g><!--link crank_returned to ready--><g id="link_crank_returned_ready"><path d="M1073.71,697.7669 C1092.16,689.5669 1110.84,678.0869 1123.81,662.2969 C1148.86,631.8069 1145.81,615.7469 1145.81,576.2969 C1145.81,290.2969 1145.81,290.2969 1145.81,290.2969 C1145.81,246.7369 1134.99,228.5569 1098.81,204.2969 C1023.7,153.9269 742.54,150.0111 649.26,150.1011 " fill="none" id="crank_returned-to-ready" style="stroke:#181818;stroke-width:1.0;"/><polygon fill="#181818" points="643.26,150.1069,652.2639,154.0982,648.26,150.1021,652.2561,146.0982,643.26,150.1069" style="stroke:#181818;stroke-width:1.0;"/></g><!--link crank_returned to *end*--><g id="link_crank_returned_*end*"><path d="M1010.81,742.7569 C1010.81,762.3369 1010.81,782.7869 1010.81,797.0969 " fill="none" id="crank_returned-to-*end*" style="stroke:#181818;stroke-width:1.0;"/><polygon fill="#181818" points="1010.81,803.0969,1014.81,794.0969,1010.81,798.0969,1006.81,794.0969,1010.81,803.0969" style="stroke:#181818;stroke-width:1.0;"/></g><!--SRC=[bPHHRu8m4CVV-HGtNjGbcZsJk6GJivZCQI9xMERIT79gDsX9MnxyzeCM10GNV6ll_dVztVLQpNI4iD5K8_YC7YIDOIyalAJnDuqYurZItP5nT9HHIQJXoVcy_uBn-B7OMSzEC4v2AP84Gw0AtBh1BKMIyb-YKybBKStWEeqS-G4DlMUtZ1-yBGTG6Eqd91OXHXFZ60uIePXcWWz6S3U5Xtw7Mj71ban2fXBagb2sh1bZFLlEs8xqe5XteRRamn4m1O5CyLQKUdaIMmMM9jTfPwoQUmxqOCyuKyT-_PrM_JLJOCurAxS-419_SAVh4r5QNCV66PA6r0Exp418GaynSjq6oYDK9FHmaAUnGBFLueriNbS1UNxo-r9SgQ4PTnvs0wTGtm2MNMu5Db-kWuyUVRl-a2wwLWezo8Wwh-x_Jgrci_VrOkvt3fDpCIBLc-zmP9_27m00]--></g></svg>